<svg width="360" height="360" viewBox="0 0 360 360" fill="none" xmlns="http://www.w3.org/2000/svg">
<path d="M212 0L320 108V360H40V0H212Z" fill="#E6E6E6"/>
<path d="M320 108H212V0L320 108Z" fill="#2A60AB"/>
<rect x="56" y="88" width="140" height="8" fill="#2A60AB"/>
<rect x="56" y="44" width="140" height="8" fill="#2A60AB"/>
<rect x="56" y="132" width="248" height="8" fill="#2A60AB"/>
<rect x="56" y="176" width="248" height="8" fill="#2A60AB"/>
<rect x="56" y="220" width="248" height="8" fill="#2A60AB"/>
<rect x="56" y="264" width="248" height="8" fill="#2A60AB"/>
<rect x="56" y="308" width="248" height="8" fill="#2A60AB"/>
<rect x="24" y="127" width="312" height="105" rx="16" fill="#1D4274"/>
<path d="M56.1195 166.368H55.6715V204H50.8075V159.328H58.4235L73.6555 196.96H74.1035V159.328H78.9675V204H71.3515L56.1195 166.368ZM115.743 204C113.737 204 112.308 203.488 111.455 202.464C110.601 201.44 110.068 200.16 109.855 198.624H109.535C108.809 200.544 107.636 202.059 106.015 203.168C104.436 204.235 102.303 204.768 99.6145 204.768C96.1585 204.768 93.4065 203.872 91.3585 202.08C89.3105 200.288 88.2865 197.835 88.2865 194.72C88.2865 191.648 89.3958 189.28 91.6145 187.616C93.8758 185.952 97.5025 185.12 102.495 185.12H109.535V181.856C109.535 179.424 108.852 177.611 107.487 176.416C106.121 175.179 104.18 174.56 101.663 174.56C99.4438 174.56 97.6305 175.008 96.2225 175.904C94.8145 176.757 93.6838 177.931 92.8305 179.424L89.3745 176.864C89.8012 176.011 90.3772 175.179 91.1025 174.368C91.8278 173.557 92.7238 172.853 93.7905 172.256C94.8572 171.616 96.0732 171.125 97.4385 170.784C98.8038 170.4 100.319 170.208 101.983 170.208C105.865 170.208 108.937 171.189 111.199 173.152C113.503 175.115 114.655 177.845 114.655 181.344V199.52H119.263V204H115.743ZM100.51 200.48C101.833 200.48 103.028 200.331 104.095 200.032C105.204 199.691 106.164 199.264 106.975 198.752C107.785 198.197 108.404 197.557 108.831 196.832C109.3 196.064 109.535 195.253 109.535 194.4V188.96H102.495C99.4225 188.96 97.1825 189.387 95.7745 190.24C94.3665 191.093 93.6625 192.331 93.6625 193.952V195.296C93.6625 197.003 94.2598 198.304 95.4545 199.2C96.6918 200.053 98.3772 200.48 100.51 200.48ZM138.374 204L126.534 170.976H131.718L136.454 184.8L141.574 199.712H141.83L146.95 184.8L151.686 170.976H156.742L144.902 204H138.374ZM190.701 170.976H195.821L179.437 211.232C179.053 212.171 178.626 212.981 178.157 213.664C177.687 214.389 177.133 214.965 176.493 215.392C175.853 215.861 175.085 216.203 174.189 216.416C173.293 216.672 172.226 216.8 170.989 216.8H166.125V212.448H173.805L177.517 203.36L164.205 170.976H169.453L175.021 184.8L179.949 197.344H180.205L185.133 184.8L190.701 170.976ZM204.948 204V159.328H233.108V164H210.324V179.04H231.188V183.712H210.324V204H204.948ZM256.763 204.768C254.459 204.768 252.368 204.363 250.491 203.552C248.656 202.741 247.077 201.589 245.755 200.096C244.475 198.56 243.493 196.747 242.811 194.656C242.128 192.523 241.786 190.133 241.786 187.488C241.786 184.885 242.128 182.517 242.811 180.384C243.493 178.251 244.475 176.437 245.755 174.944C247.077 173.408 248.656 172.235 250.491 171.424C252.368 170.613 254.459 170.208 256.763 170.208C259.067 170.208 261.136 170.613 262.971 171.424C264.848 172.235 266.427 173.408 267.707 174.944C269.029 176.437 270.032 178.251 270.715 180.384C271.397 182.517 271.739 184.885 271.739 187.488C271.739 190.133 271.397 192.523 270.715 194.656C270.032 196.747 269.029 198.56 267.707 200.096C266.427 201.589 264.848 202.741 262.971 203.552C261.136 204.363 259.067 204.768 256.763 204.768ZM256.763 200.352C259.621 200.352 261.925 199.499 263.675 197.792C265.424 196.085 266.299 193.44 266.299 189.856V185.12C266.299 181.536 265.424 178.891 263.675 177.184C261.925 175.477 259.621 174.624 256.763 174.624C253.904 174.624 251.6 175.477 249.851 177.184C248.101 178.891 247.227 181.536 247.227 185.12V189.856C247.227 193.44 248.101 196.085 249.851 197.792C251.6 199.499 253.904 200.352 256.763 200.352ZM279.842 204L292.13 187.232L280.161 170.976H286.306L291.298 177.952L295.266 183.456H295.522L299.362 177.952L304.29 170.976H310.178L298.082 187.168L310.498 204H304.354L298.786 196.256L295.01 191.008H294.753L291.106 196.256L285.73 204H279.842Z" fill="white"/>
</svg>
