<svg width="512" height="512" viewBox="0 0 512 512" fill="none" xmlns="http://www.w3.org/2000/svg">
<path d="M288 76L396 184V436H116V76H288Z" fill="#E6E6E6"/>
<path d="M396 184H288V76L396 184Z" fill="#36F2B0"/>
<rect x="132" y="164" width="140" height="8" fill="#36F2B0"/>
<rect x="132" y="120" width="140" height="8" fill="#36F2B0"/>
<rect x="132" y="208" width="248" height="8" fill="#36F2B0"/>
<rect x="132" y="252" width="248" height="8" fill="#36F2B0"/>
<rect x="132" y="296" width="248" height="8" fill="#36F2B0"/>
<rect x="132" y="340" width="248" height="8" fill="#36F2B0"/>
<rect x="132" y="384" width="248" height="8" fill="#36F2B0"/>
<rect x="100" y="243" width="312" height="105" rx="16" fill="#5088D7"/>
<path d="M169.67 323.648C167.702 323.648 166.31 323.24 165.494 322.424C164.726 321.608 164.342 320.576 164.342 319.328V318.032C164.342 316.784 164.726 315.752 165.494 314.936C166.31 314.12 167.702 313.712 169.67 313.712C171.638 313.712 173.006 314.12 173.774 314.936C174.59 315.752 174.998 316.784 174.998 318.032V319.328C174.998 320.576 174.59 321.608 173.774 322.424C173.006 323.24 171.638 323.648 169.67 323.648ZM198.082 272.744H212.122C218.266 272.744 222.85 274.856 225.874 279.08C228.898 283.304 230.41 289.568 230.41 297.872C230.41 306.176 228.898 312.44 225.874 316.664C222.85 320.888 218.266 323 212.122 323H198.082V272.744ZM211.834 317.744C215.866 317.744 218.89 316.352 220.906 313.568C222.97 310.784 224.002 306.848 224.002 301.76V293.984C224.002 288.896 222.97 284.96 220.906 282.176C218.89 279.392 215.866 278 211.834 278H204.13V317.744H211.834ZM256.014 323.864C252.942 323.864 250.302 323.288 248.094 322.136C245.886 320.936 244.062 319.232 242.622 317.024C241.182 314.816 240.126 312.104 239.454 308.888C238.782 305.672 238.446 302 238.446 297.872C238.446 293.792 238.782 290.144 239.454 286.928C240.126 283.664 241.182 280.928 242.622 278.72C244.062 276.512 245.886 274.832 248.094 273.68C250.302 272.48 252.942 271.88 256.014 271.88C259.086 271.88 261.726 272.48 263.934 273.68C266.142 274.832 267.966 276.512 269.406 278.72C270.846 280.928 271.902 283.664 272.574 286.928C273.246 290.144 273.582 293.792 273.582 297.872C273.582 302 273.246 305.672 272.574 308.888C271.902 312.104 270.846 314.816 269.406 317.024C267.966 319.232 266.142 320.936 263.934 322.136C261.726 323.288 259.086 323.864 256.014 323.864ZM256.014 318.608C258.03 318.608 259.734 318.224 261.126 317.456C262.518 316.64 263.67 315.512 264.582 314.072C265.494 312.632 266.142 310.904 266.526 308.888C266.958 306.824 267.174 304.52 267.174 301.976V293.768C267.174 291.272 266.958 288.992 266.526 286.928C266.142 284.864 265.494 283.112 264.582 281.672C263.67 280.232 262.518 279.128 261.126 278.36C259.734 277.544 258.03 277.136 256.014 277.136C253.998 277.136 252.294 277.544 250.902 278.36C249.51 279.128 248.358 280.232 247.446 281.672C246.534 283.112 245.862 284.864 245.43 286.928C245.046 288.992 244.854 291.272 244.854 293.768V301.976C244.854 304.52 245.046 306.824 245.43 308.888C245.862 310.904 246.534 312.632 247.446 314.072C248.358 315.512 249.51 316.64 250.902 317.456C252.294 318.224 253.998 318.608 256.014 318.608ZM300.842 323.864C294.698 323.864 290.114 321.632 287.09 317.168C284.114 312.704 282.626 306.272 282.626 297.872C282.626 289.472 284.114 283.04 287.09 278.576C290.114 274.112 294.698 271.88 300.842 271.88C303.146 271.88 305.138 272.192 306.818 272.816C308.498 273.44 309.938 274.28 311.138 275.336C312.338 276.392 313.346 277.592 314.162 278.936C314.978 280.232 315.698 281.552 316.322 282.896L311.138 285.272C310.706 284.168 310.202 283.136 309.626 282.176C309.05 281.168 308.354 280.304 307.538 279.584C306.77 278.816 305.834 278.216 304.73 277.784C303.674 277.352 302.378 277.136 300.842 277.136C296.858 277.136 293.882 278.648 291.914 281.672C289.994 284.696 289.034 288.728 289.034 293.768V301.976C289.034 307.016 289.994 311.048 291.914 314.072C293.882 317.096 296.858 318.608 300.842 318.608C302.378 318.608 303.674 318.392 304.73 317.96C305.834 317.528 306.77 316.952 307.538 316.232C308.354 315.464 309.05 314.6 309.626 313.64C310.202 312.632 310.706 311.576 311.138 310.472L316.322 312.848C315.698 314.24 314.978 315.584 314.162 316.88C313.346 318.176 312.338 319.352 311.138 320.408C309.938 321.464 308.498 322.304 306.818 322.928C305.138 323.552 303.146 323.864 300.842 323.864ZM362.158 323H355.318L349.342 312.992L342.718 302.048H342.43L335.59 312.992L329.254 323H322.63L339.046 297.368L323.566 272.744H330.406L336.238 282.464L342.502 292.616H342.79L348.982 282.464L355.03 272.744H361.654L346.102 297.296L362.158 323Z" fill="white"/>
</svg>
